<?xml version="1.0" encoding="utf-8"?>
<!-- Generator: Adobe Illustrator 27.5.0, SVG Export Plug-In . SVG Version: 6.00 Build 0)  -->
<svg version="1.1" id="Layer_1" xmlns="http://www.w3.org/2000/svg" xmlns:xlink="http://www.w3.org/1999/xlink" x="0px" y="0px"
	 viewBox="0 0 16 16" style="enable-background:new 0 0 16 16;" xml:space="preserve">
<style type="text/css">
	.st0{fill:#FFFFFF;}
</style>
<path class="st0" d="M9.5,13c0,0.8-0.7,1.5-1.5,1.5S6.5,13.8,6.5,13s0.7-1.5,1.5-1.5S9.5,12.2,9.5,13z M9.5,8c0,0.8-0.7,1.5-1.5,1.5
	S6.5,8.8,6.5,8S7.2,6.5,8,6.5S9.5,7.2,9.5,8z M9.5,3c0,0.8-0.7,1.5-1.5,1.5S6.5,3.8,6.5,3S7.2,1.5,8,1.5S9.5,2.2,9.5,3z"/>
</svg>
