<?xml version="1.0" encoding="utf-8"?>
<!-- Generator: Adobe Illustrator 27.5.0, SVG Export Plug-In . SVG Version: 6.00 Build 0)  -->
<svg version="1.1" id="Layer_1" xmlns="http://www.w3.org/2000/svg" xmlns:xlink="http://www.w3.org/1999/xlink" x="0px" y="0px"
	 viewBox="0 0 16 16" style="enable-background:new 0 0 16 16;" xml:space="preserve">
<style type="text/css">
	.st0{fill:#FFFFFF;}
</style>
<path class="st0" d="M6,10.5C6,10.2,6.2,10,6.5,10h3c0.3,0,0.5,0.2,0.5,0.5S9.8,11,9.5,11h-3C6.2,11,6,10.8,6,10.5z M4,7.5
	C4,7.2,4.2,7,4.5,7h7C11.8,7,12,7.2,12,7.5S11.8,8,11.5,8h-7C4.2,8,4,7.8,4,7.5z M2,4.5C2,4.2,2.2,4,2.5,4h11C13.8,4,14,4.2,14,4.5
	S13.8,5,13.5,5h-11C2.2,5,2,4.8,2,4.5z"/>
</svg>
