<?xml version="1.0" encoding="utf-8"?>
<!-- Generator: Adobe Illustrator 27.5.0, SVG Export Plug-In . SVG Version: 6.00 Build 0)  -->
<svg version="1.2" baseProfile="tiny" id="Layer_1" xmlns="http://www.w3.org/2000/svg" xmlns:xlink="http://www.w3.org/1999/xlink"
	 x="0px" y="0px" viewBox="0 0 16 16" overflow="visible" xml:space="preserve">
<path fill="#FFFFFF" d="M6,5.5C6,6.3,5.3,7,4.5,7S3,6.3,3,5.5S3.7,4,4.5,4S6,4.7,6,5.5z"/>
<path fill="#FFFFFF" d="M2,1C0.9,1,0,1.9,0,3v10c0,1.1,0.9,2,2,2h12c1.1,0,2-0.9,2-2V3c0-1.1-0.9-2-2-2C14,1,2,1,2,1z M14,2
	c0.6,0,1,0.4,1,1v6.5l-3.8-1.9c-0.2-0.1-0.4-0.1-0.6,0.1l-3.7,3.7L4.3,9.6C4.1,9.5,3.8,9.5,3.6,9.6L1,12V3c0-0.6,0.4-1,1-1H14z"/>
</svg>
