<?xml version="1.0" encoding="utf-8"?>
<!-- Generator: Adobe Illustrator 27.5.0, SVG Export Plug-In . SVG Version: 6.00 Build 0)  -->
<svg version="1.2" baseProfile="tiny" id="Layer_1" xmlns="http://www.w3.org/2000/svg" xmlns:xlink="http://www.w3.org/1999/xlink"
	 x="0px" y="0px" viewBox="0 0 16 16" overflow="visible" xml:space="preserve">
<path fill="#FFFFFF" d="M14.5,3C14.8,3,15,3.2,15,3.5v9c0,0.3-0.2,0.5-0.5,0.5h-13C1.2,13,1,12.8,1,12.5v-9C1,3.2,1.2,3,1.5,3H14.5z
	 M1.5,2C0.7,2,0,2.7,0,3.5v9C0,13.3,0.7,14,1.5,14h13c0.8,0,1.5-0.7,1.5-1.5v-9C16,2.7,15.3,2,14.5,2H1.5z"/>
<path fill="#FFFFFF" d="M3,5.5C3,5.2,3.2,5,3.5,5h9C12.8,5,13,5.2,13,5.5S12.8,6,12.5,6h-9C3.2,6,3,5.8,3,5.5z M3,8
	c0-0.3,0.2-0.5,0.5-0.5h9C12.8,7.5,13,7.7,13,8c0,0.3-0.2,0.5-0.5,0.5h-9C3.2,8.5,3,8.3,3,8z M3,10.5C3,10.2,3.2,10,3.5,10h6
	c0.3,0,0.5,0.2,0.5,0.5S9.8,11,9.5,11h-6C3.2,11,3,10.8,3,10.5z"/>
</svg>
